<svg width="250" height="43" viewBox="0 0 250 43" fill="none" xmlns="http://www.w3.org/2000/svg">
<rect width="250" height="43" rx="4" fill="#03C75A"/>
<g clip-path="url(#clip0_52_97)">
<path d="M70.8491 22.0627L64.9169 13.5H60V29.5H65.1509V20.936L71.0831 29.5H76V13.5H70.8491V22.0627Z" fill="white"/>
</g>
<path d="M100.27 18.918H96.868V17.604H100.27V12.87H101.8V27.486H100.27V18.918ZM104.968 28.26H103.438V12.528H104.968V28.26ZM99.19 23.742C98.074 24.012 95.932 24.228 93.97 24.264H92.476V14.22H94.06V22.896C95.608 22.896 97.876 22.734 98.956 22.428L99.19 23.742ZM120.236 28.26H118.634V12.528H120.236V28.26ZM107.816 19.26C107.816 16.146 109.076 13.716 111.866 13.716C114.656 13.716 115.898 16.146 115.898 19.278C115.898 22.392 114.656 24.84 111.866 24.84C109.076 24.84 107.816 22.392 107.816 19.26ZM114.314 19.278C114.314 16.848 113.486 15.084 111.866 15.084C110.264 15.084 109.436 16.848 109.436 19.278C109.436 21.708 110.264 23.454 111.866 23.454C113.486 23.454 114.314 21.708 114.314 19.278ZM134.244 19.638H131.418V18.288H134.244V12.528H135.828V28.26H134.244V19.638ZM130.716 24.3H123.318V13.806H124.884V17.766H129.114V13.788H130.716V24.3ZM129.114 23.004V19.026H124.884V23.004H129.114ZM157.337 26.262H143.135V24.966H149.399V22.482H144.845V17.424H153.989V15.12H144.809V13.824H155.573V18.72H146.429V21.186H156.005V22.482H151.001V24.966H157.337V26.262ZM172.911 25.974H158.709V24.678H172.911V25.974ZM171.021 14.31C171.021 17.892 170.751 21.51 170.283 23.544L168.735 23.346C169.131 21.834 169.401 17.964 169.401 15.588H160.185V14.31H171.021ZM187.19 23.958H185.588V12.528H187.19V23.958ZM187.55 27.774H176.84V22.878H178.442V26.496H187.55V27.774ZM178.838 13.59C181.268 13.59 183.05 15.264 183.05 17.514C183.05 19.782 181.268 21.348 178.838 21.348C176.426 21.348 174.644 19.782 174.644 17.532C174.644 15.264 176.426 13.59 178.838 13.59ZM178.838 14.958C177.362 14.958 176.318 16.038 176.318 17.496C176.318 18.936 177.362 20.016 178.838 20.016C180.386 20.016 181.358 18.954 181.358 17.514C181.358 16.02 180.386 14.958 178.838 14.958Z" fill="white"/>
<defs>
<clipPath id="clip0_52_97">
<rect width="16" height="16" fill="white" transform="translate(60 13.5)"/>
</clipPath>
</defs>
</svg>
