<svg width="20" height="21" viewBox="0 0 20 21" fill="none" xmlns="http://www.w3.org/2000/svg">
<rect x="0.5" y="1" width="19" height="19" rx="9.5" fill="#D7D9CD"/>
<rect x="0.5" y="1" width="19" height="19" rx="9.5" stroke="#222C22"/>
<path d="M15.932 15.7698C15.0542 14.1917 13.7014 13.0601 12.1228 12.5236C12.9036 12.0402 13.5103 11.3036 13.8497 10.4269C14.189 9.55021 14.2422 8.58191 14.0012 7.67072C13.7601 6.75953 13.2381 5.95582 12.5153 5.38302C11.7924 4.81022 10.9088 4.5 10 4.5C9.09122 4.5 8.20757 4.81022 7.48475 5.38302C6.76193 5.95582 6.2399 6.75953 5.99883 7.67072C5.75776 8.58191 5.81098 9.55021 6.15032 10.4269C6.48966 11.3036 7.09636 12.0402 7.87724 12.5236C6.29857 13.0595 4.94584 14.1911 4.06803 15.7698C4.03584 15.8244 4.01449 15.8851 4.00524 15.9484C3.99598 16.0117 3.99902 16.0763 4.01416 16.1384C4.0293 16.2005 4.05624 16.2588 4.09339 16.3098C4.13054 16.3609 4.17715 16.4037 4.23047 16.4357C4.28378 16.4677 4.34273 16.4883 4.40383 16.4963C4.46492 16.5042 4.52693 16.4994 4.5862 16.482C4.64546 16.4646 4.70078 16.4351 4.74889 16.3951C4.79699 16.3552 4.83692 16.3056 4.8663 16.2493C5.95218 14.2978 7.87148 13.1326 10 13.1326C12.1285 13.1326 14.0478 14.2978 15.1337 16.2493C15.1631 16.3056 15.203 16.3552 15.2511 16.3951C15.2992 16.4351 15.3545 16.4646 15.4138 16.482C15.4731 16.4994 15.5351 16.5042 15.5962 16.4963C15.6573 16.4883 15.7162 16.4677 15.7695 16.4357C15.8229 16.4037 15.8695 16.3609 15.9066 16.3098C15.9438 16.2588 15.9707 16.2005 15.9858 16.1384C16.001 16.0763 16.004 16.0117 15.9948 15.9484C15.9855 15.8851 15.9642 15.8244 15.932 15.7698ZM6.77235 8.81711C6.77235 8.15326 6.96164 7.50432 7.3163 6.95235C7.67096 6.40038 8.17505 5.97017 8.76483 5.71612C9.35461 5.46208 10.0036 5.39561 10.6297 5.52512C11.2558 5.65463 11.8309 5.9743 12.2823 6.44372C12.7337 6.91313 13.0411 7.5112 13.1656 8.16229C13.2902 8.81338 13.2263 9.48826 12.982 10.1016C12.7377 10.7149 12.324 11.2391 11.7932 11.6079C11.2624 11.9767 10.6384 12.1736 10 12.1736C9.14425 12.1726 8.32382 11.8187 7.71871 11.1894C7.11361 10.5602 6.77326 9.70701 6.77235 8.81711Z" fill="#222C22"/>
</svg>
